# xmcd
#
# Track frame offsets:
#	150
#	25740
#	47940
#	75257
#	104717
#	143377
#	164580
#	189727
#	216332
#	235710
#	260734
#	302160
#
# Disc length: 4218 seconds
#
# Revision: 11
# Processed by: cddbd v1.5.2PL0 Copyright (c) Steve Scherf et al.
# Submitted via: audiograbber 1.83.01
#
DISCID=a510780c
DTITLE=Ozzy Osbourne - Speak Of The Devil
DYEAR=1982
DGENRE=Heavy Metal
TTITLE0=Symptom Of The Universe
TTITLE1=Snowblind
TTITLE2=Black Sabbath
TTITLE3=Fairies Wear Boots
TTITLE4=War Pigs
TTITLE5=The Wizard
TTITLE6=N.I.B.
TTITLE7=Sweet Leaf
TTITLE8=Never Say Die
TTITLE9=Sabbath, Bloody Sabbath
TTITLE10=Iron Man - Children Of The Grave
TTITLE11=Paranoid
EXTD=YEAR: 1982
EXTT0=
EXTT1=
EXTT2=
EXTT3=
EXTT4=
EXTT5=
EXTT6=
EXTT7=
EXTT8=
EXTT9=
EXTT10=
EXTT11=
PLAYORDER=
